<?xml version="1.0" standalone="no"?>
<!DOCTYPE svg PUBLIC "-//W3C//DTD SVG 20010904//EN"
 "http://www.w3.org/TR/2001/REC-SVG-20010904/DTD/svg10.dtd">
<svg version="1.0" xmlns="http://www.w3.org/2000/svg" height="100%" viewBox="0 0 794.000000 82.000000"
 preserveAspectRatio="xMidYMid meet">

<g transform="translate(0.000000,82.000000) scale(0.100000,-0.100000)"
fill="#000000" stroke="none">
<path d="m-10,622.999991l0,-188.999991l323,28.720587c177,15.749999 741,66.705879 1253,112.566171c512,46.323527 989,88.014702 1060,92.647054c363,25.47794 685,25.47794 1049,0.463235c223,-15.749999 344,-31.499999 650,-85.698525c319,-56.514703 432,-71.801467 635,-87.088231c191,-14.360293 329,-18.529411 564,-15.749999c272,2.779412 338,6.948529 876,56.051468c359,32.426469 818,73.654408 1313,118.58823c115,10.191176 211,18.529411 213,18.529411c2,0 4,31.499999 4,69.485291l0,69.485291l-3970,0l-3970,0l0,-188.999991z"/>
</g>
</svg>
